<mxfile host="app.diagrams.net" modified="2022-11-25T20:43:51.999Z" agent="5.0 (Macintosh; Intel Mac OS X 10_15_7) AppleWebKit/537.36 (KHTML, like Gecko) Chrome/107.0.0.0 Safari/537.36" etag="WrCkHIExi96vjpUsJkx_" version="20.6.0" type="github">
  <diagram id="prtHgNgQTEPvFCAcTncT" name="Page-1">
    <mxGraphModel dx="1577" dy="982" grid="1" gridSize="10" guides="1" tooltips="1" connect="1" arrows="1" fold="1" page="1" pageScale="1" pageWidth="827" pageHeight="1169" math="0" shadow="0">
      <root>
        <mxCell id="0" />
        <mxCell id="1" parent="0" />
        <mxCell id="Q43GNFNiwiVQ_0NkFgTO-1" value="" style="rounded=0;whiteSpace=wrap;html=1;" vertex="1" parent="1">
          <mxGeometry x="120" y="560" width="680" height="120" as="geometry" />
        </mxCell>
        <mxCell id="Q43GNFNiwiVQ_0NkFgTO-6" value="GitHub" style="text;html=1;strokeColor=none;fillColor=none;align=center;verticalAlign=middle;whiteSpace=wrap;rounded=0;" vertex="1" parent="1">
          <mxGeometry x="120" y="560" width="60" height="30" as="geometry" />
        </mxCell>
        <mxCell id="Q43GNFNiwiVQ_0NkFgTO-68" value="" style="rounded=0;whiteSpace=wrap;html=1;fillColor=#fff2cc;strokeColor=#d6b656;" vertex="1" parent="1">
          <mxGeometry x="133" y="590" width="657" height="70" as="geometry" />
        </mxCell>
        <mxCell id="Q43GNFNiwiVQ_0NkFgTO-7" value="リモートブランチ" style="text;html=1;strokeColor=none;fillColor=none;align=left;verticalAlign=middle;whiteSpace=wrap;rounded=0;" vertex="1" parent="1">
          <mxGeometry x="140" y="590" width="110" height="30" as="geometry" />
        </mxCell>
        <mxCell id="Q43GNFNiwiVQ_0NkFgTO-12" value="" style="group" vertex="1" connectable="0" parent="1">
          <mxGeometry x="140" y="620" width="100" height="45" as="geometry" />
        </mxCell>
        <mxCell id="Q43GNFNiwiVQ_0NkFgTO-8" value="" style="rounded=1;whiteSpace=wrap;html=1;" vertex="1" parent="Q43GNFNiwiVQ_0NkFgTO-12">
          <mxGeometry width="100" height="30" as="geometry" />
        </mxCell>
        <mxCell id="Q43GNFNiwiVQ_0NkFgTO-9" value="main" style="text;html=1;strokeColor=none;fillColor=none;align=center;verticalAlign=middle;whiteSpace=wrap;rounded=0;" vertex="1" parent="Q43GNFNiwiVQ_0NkFgTO-12">
          <mxGeometry y="5" width="100" height="20" as="geometry" />
        </mxCell>
        <mxCell id="Q43GNFNiwiVQ_0NkFgTO-13" value="" style="group" vertex="1" connectable="0" parent="1">
          <mxGeometry x="330" y="620" width="100" height="30" as="geometry" />
        </mxCell>
        <mxCell id="Q43GNFNiwiVQ_0NkFgTO-14" value="" style="rounded=1;whiteSpace=wrap;html=1;" vertex="1" parent="Q43GNFNiwiVQ_0NkFgTO-13">
          <mxGeometry width="100" height="30" as="geometry" />
        </mxCell>
        <mxCell id="Q43GNFNiwiVQ_0NkFgTO-15" value="first-branch" style="text;html=1;strokeColor=none;fillColor=none;align=center;verticalAlign=middle;whiteSpace=wrap;rounded=0;" vertex="1" parent="Q43GNFNiwiVQ_0NkFgTO-13">
          <mxGeometry y="5" width="100" height="20" as="geometry" />
        </mxCell>
        <mxCell id="Q43GNFNiwiVQ_0NkFgTO-16" value="" style="rounded=0;whiteSpace=wrap;html=1;" vertex="1" parent="1">
          <mxGeometry x="120" y="790" width="680" height="290" as="geometry" />
        </mxCell>
        <mxCell id="Q43GNFNiwiVQ_0NkFgTO-17" value="Git" style="text;html=1;strokeColor=none;fillColor=none;align=center;verticalAlign=middle;whiteSpace=wrap;rounded=0;" vertex="1" parent="1">
          <mxGeometry x="120" y="790" width="60" height="30" as="geometry" />
        </mxCell>
        <mxCell id="Q43GNFNiwiVQ_0NkFgTO-28" value="" style="rounded=0;whiteSpace=wrap;html=1;fillColor=#fff2cc;strokeColor=#d6b656;" vertex="1" parent="1">
          <mxGeometry x="133" y="819" width="657" height="70" as="geometry" />
        </mxCell>
        <mxCell id="Q43GNFNiwiVQ_0NkFgTO-18" value="（リモート）トラッキングブランチ" style="text;html=1;strokeColor=none;fillColor=none;align=left;verticalAlign=middle;whiteSpace=wrap;rounded=0;" vertex="1" parent="1">
          <mxGeometry x="140" y="820" width="200" height="30" as="geometry" />
        </mxCell>
        <mxCell id="Q43GNFNiwiVQ_0NkFgTO-19" value="" style="group" vertex="1" connectable="0" parent="1">
          <mxGeometry x="140" y="850" width="100" height="30" as="geometry" />
        </mxCell>
        <mxCell id="Q43GNFNiwiVQ_0NkFgTO-20" value="" style="rounded=1;whiteSpace=wrap;html=1;" vertex="1" parent="Q43GNFNiwiVQ_0NkFgTO-19">
          <mxGeometry width="100" height="30" as="geometry" />
        </mxCell>
        <mxCell id="Q43GNFNiwiVQ_0NkFgTO-21" value="origin/main" style="text;html=1;strokeColor=none;fillColor=none;align=center;verticalAlign=middle;whiteSpace=wrap;rounded=0;" vertex="1" parent="Q43GNFNiwiVQ_0NkFgTO-19">
          <mxGeometry y="5" width="100" height="20" as="geometry" />
        </mxCell>
        <mxCell id="Q43GNFNiwiVQ_0NkFgTO-25" value="" style="group" vertex="1" connectable="0" parent="1">
          <mxGeometry x="330" y="850" width="100" height="30" as="geometry" />
        </mxCell>
        <mxCell id="Q43GNFNiwiVQ_0NkFgTO-26" value="" style="rounded=1;whiteSpace=wrap;html=1;" vertex="1" parent="Q43GNFNiwiVQ_0NkFgTO-25">
          <mxGeometry width="100" height="30" as="geometry" />
        </mxCell>
        <mxCell id="Q43GNFNiwiVQ_0NkFgTO-27" value="origin/first-branch" style="text;html=1;strokeColor=none;fillColor=none;align=center;verticalAlign=middle;whiteSpace=wrap;rounded=0;" vertex="1" parent="Q43GNFNiwiVQ_0NkFgTO-25">
          <mxGeometry y="5" width="100" height="20" as="geometry" />
        </mxCell>
        <mxCell id="Q43GNFNiwiVQ_0NkFgTO-29" value="" style="rounded=0;whiteSpace=wrap;html=1;fillColor=#fff2cc;strokeColor=#d6b656;" vertex="1" parent="1">
          <mxGeometry x="133" y="990" width="657" height="70" as="geometry" />
        </mxCell>
        <mxCell id="Q43GNFNiwiVQ_0NkFgTO-30" value="ブランチ" style="text;html=1;strokeColor=none;fillColor=none;align=left;verticalAlign=middle;whiteSpace=wrap;rounded=0;" vertex="1" parent="1">
          <mxGeometry x="140" y="991" width="100" height="30" as="geometry" />
        </mxCell>
        <mxCell id="Q43GNFNiwiVQ_0NkFgTO-31" value="" style="group" vertex="1" connectable="0" parent="1">
          <mxGeometry x="140" y="1021" width="100" height="30" as="geometry" />
        </mxCell>
        <mxCell id="Q43GNFNiwiVQ_0NkFgTO-32" value="" style="rounded=1;whiteSpace=wrap;html=1;" vertex="1" parent="Q43GNFNiwiVQ_0NkFgTO-31">
          <mxGeometry width="100" height="30" as="geometry" />
        </mxCell>
        <mxCell id="Q43GNFNiwiVQ_0NkFgTO-33" value="main" style="text;html=1;strokeColor=none;fillColor=none;align=center;verticalAlign=middle;whiteSpace=wrap;rounded=0;" vertex="1" parent="Q43GNFNiwiVQ_0NkFgTO-31">
          <mxGeometry y="5" width="100" height="20" as="geometry" />
        </mxCell>
        <mxCell id="Q43GNFNiwiVQ_0NkFgTO-34" value="" style="group" vertex="1" connectable="0" parent="1">
          <mxGeometry x="330" y="1021" width="100" height="30" as="geometry" />
        </mxCell>
        <mxCell id="Q43GNFNiwiVQ_0NkFgTO-35" value="" style="rounded=1;whiteSpace=wrap;html=1;" vertex="1" parent="Q43GNFNiwiVQ_0NkFgTO-34">
          <mxGeometry width="100" height="30" as="geometry" />
        </mxCell>
        <mxCell id="Q43GNFNiwiVQ_0NkFgTO-36" value="first-branch" style="text;html=1;strokeColor=none;fillColor=none;align=center;verticalAlign=middle;whiteSpace=wrap;rounded=0;" vertex="1" parent="Q43GNFNiwiVQ_0NkFgTO-34">
          <mxGeometry y="5" width="100" height="20" as="geometry" />
        </mxCell>
        <mxCell id="Q43GNFNiwiVQ_0NkFgTO-37" style="edgeStyle=orthogonalEdgeStyle;rounded=0;orthogonalLoop=1;jettySize=auto;html=1;exitX=1;exitY=0.5;exitDx=0;exitDy=0;" edge="1" parent="1" source="Q43GNFNiwiVQ_0NkFgTO-36">
          <mxGeometry relative="1" as="geometry">
            <mxPoint x="470" y="640" as="targetPoint" />
            <Array as="points">
              <mxPoint x="470" y="1036" />
            </Array>
          </mxGeometry>
        </mxCell>
        <mxCell id="Q43GNFNiwiVQ_0NkFgTO-39" style="edgeStyle=orthogonalEdgeStyle;rounded=0;orthogonalLoop=1;jettySize=auto;html=1;exitX=0.5;exitY=0;exitDx=0;exitDy=0;entryX=0.5;entryY=1;entryDx=0;entryDy=0;" edge="1" parent="1" source="Q43GNFNiwiVQ_0NkFgTO-20" target="Q43GNFNiwiVQ_0NkFgTO-8">
          <mxGeometry relative="1" as="geometry">
            <mxPoint x="190" y="665" as="targetPoint" />
          </mxGeometry>
        </mxCell>
        <mxCell id="Q43GNFNiwiVQ_0NkFgTO-42" style="edgeStyle=orthogonalEdgeStyle;rounded=0;orthogonalLoop=1;jettySize=auto;html=1;exitX=0.5;exitY=1;exitDx=0;exitDy=0;entryX=0.5;entryY=0;entryDx=0;entryDy=0;" edge="1" parent="1" source="Q43GNFNiwiVQ_0NkFgTO-14" target="Q43GNFNiwiVQ_0NkFgTO-26">
          <mxGeometry relative="1" as="geometry" />
        </mxCell>
        <mxCell id="Q43GNFNiwiVQ_0NkFgTO-43" style="edgeStyle=orthogonalEdgeStyle;rounded=0;orthogonalLoop=1;jettySize=auto;html=1;exitX=0.5;exitY=1;exitDx=0;exitDy=0;entryX=0.5;entryY=0;entryDx=0;entryDy=0;" edge="1" parent="1" source="Q43GNFNiwiVQ_0NkFgTO-26" target="Q43GNFNiwiVQ_0NkFgTO-35">
          <mxGeometry relative="1" as="geometry" />
        </mxCell>
        <mxCell id="Q43GNFNiwiVQ_0NkFgTO-44" value="" style="group" vertex="1" connectable="0" parent="1">
          <mxGeometry x="500" y="620" width="120" height="30" as="geometry" />
        </mxCell>
        <mxCell id="Q43GNFNiwiVQ_0NkFgTO-45" value="" style="rounded=1;whiteSpace=wrap;html=1;" vertex="1" parent="Q43GNFNiwiVQ_0NkFgTO-44">
          <mxGeometry width="120" height="30" as="geometry" />
        </mxCell>
        <mxCell id="Q43GNFNiwiVQ_0NkFgTO-46" value="second-branch" style="text;html=1;strokeColor=none;fillColor=none;align=center;verticalAlign=middle;whiteSpace=wrap;rounded=0;" vertex="1" parent="Q43GNFNiwiVQ_0NkFgTO-44">
          <mxGeometry y="5" width="120" height="20" as="geometry" />
        </mxCell>
        <mxCell id="Q43GNFNiwiVQ_0NkFgTO-47" value="" style="group" vertex="1" connectable="0" parent="1">
          <mxGeometry x="500" y="850" width="120" height="30" as="geometry" />
        </mxCell>
        <mxCell id="Q43GNFNiwiVQ_0NkFgTO-48" value="" style="rounded=1;whiteSpace=wrap;html=1;" vertex="1" parent="Q43GNFNiwiVQ_0NkFgTO-47">
          <mxGeometry width="120" height="30" as="geometry" />
        </mxCell>
        <mxCell id="Q43GNFNiwiVQ_0NkFgTO-49" value="origin/second-branch" style="text;html=1;strokeColor=none;fillColor=none;align=center;verticalAlign=middle;whiteSpace=wrap;rounded=0;" vertex="1" parent="Q43GNFNiwiVQ_0NkFgTO-47">
          <mxGeometry y="5" width="120" height="20" as="geometry" />
        </mxCell>
        <mxCell id="Q43GNFNiwiVQ_0NkFgTO-50" value="" style="group" vertex="1" connectable="0" parent="1">
          <mxGeometry x="500" y="1021" width="120" height="30" as="geometry" />
        </mxCell>
        <mxCell id="Q43GNFNiwiVQ_0NkFgTO-51" value="" style="rounded=1;whiteSpace=wrap;html=1;" vertex="1" parent="Q43GNFNiwiVQ_0NkFgTO-50">
          <mxGeometry width="120" height="30" as="geometry" />
        </mxCell>
        <mxCell id="Q43GNFNiwiVQ_0NkFgTO-52" value="second-branch" style="text;html=1;strokeColor=none;fillColor=none;align=center;verticalAlign=middle;whiteSpace=wrap;rounded=0;" vertex="1" parent="Q43GNFNiwiVQ_0NkFgTO-50">
          <mxGeometry y="5" width="120" height="20" as="geometry" />
        </mxCell>
        <mxCell id="Q43GNFNiwiVQ_0NkFgTO-59" value="" style="group" vertex="1" connectable="0" parent="1">
          <mxGeometry x="474" y="750" width="70" height="49" as="geometry" />
        </mxCell>
        <mxCell id="Q43GNFNiwiVQ_0NkFgTO-55" value="" style="ellipse;whiteSpace=wrap;html=1;fillColor=#f8cecc;strokeColor=#b85450;" vertex="1" parent="Q43GNFNiwiVQ_0NkFgTO-59">
          <mxGeometry width="70" height="49" as="geometry" />
        </mxCell>
        <mxCell id="Q43GNFNiwiVQ_0NkFgTO-56" value="　push" style="text;html=1;strokeColor=none;fillColor=none;align=center;verticalAlign=middle;whiteSpace=wrap;rounded=0;" vertex="1" parent="Q43GNFNiwiVQ_0NkFgTO-59">
          <mxGeometry y="14.5" width="70" height="20" as="geometry" />
        </mxCell>
        <mxCell id="Q43GNFNiwiVQ_0NkFgTO-58" value="" style="shape=image;verticalLabelPosition=bottom;labelBackgroundColor=default;verticalAlign=top;aspect=fixed;imageAspect=0;image=data:image/svg+xml,PHN2ZyB4bWxucz0iaHR0cDovL3d3dy53My5vcmcvMjAwMC9zdmciIGhlaWdodD0iMTYiIHdpZHRoPSIxNiIgdmlld0JveD0iMCAwIDE2IDE2Ij48cGF0aCBkPSJNMy40NyA3Ljc4YS43NS43NSAwIDAxMC0xLjA2bDQuMjUtNC4yNWEuNzUuNzUgMCAwMTEuMDYgMGw0LjI1IDQuMjVhLjc1Ljc1IDAgMDEtMS4wNiAxLjA2TDkgNC44MXY3LjQ0YS43NS43NSAwIDAxLTEuNSAwVjQuODFMNC41MyA3Ljc4YS43NS43NSAwIDAxLTEuMDYgMHoiIGZpbGwtcnVsZT0iZXZlbm9kZCIvPjwvc3ZnPg==;" vertex="1" parent="Q43GNFNiwiVQ_0NkFgTO-59">
          <mxGeometry x="10" y="18.5" width="16" height="16" as="geometry" />
        </mxCell>
        <mxCell id="Q43GNFNiwiVQ_0NkFgTO-61" value="" style="group" vertex="1" connectable="0" parent="1">
          <mxGeometry x="383" y="710" width="70" height="49" as="geometry" />
        </mxCell>
        <mxCell id="Q43GNFNiwiVQ_0NkFgTO-62" value="" style="ellipse;whiteSpace=wrap;html=1;fillColor=#f8cecc;strokeColor=#b85450;" vertex="1" parent="Q43GNFNiwiVQ_0NkFgTO-61">
          <mxGeometry width="70" height="49" as="geometry" />
        </mxCell>
        <mxCell id="Q43GNFNiwiVQ_0NkFgTO-63" value="　fetch" style="text;html=1;strokeColor=none;fillColor=none;align=center;verticalAlign=middle;whiteSpace=wrap;rounded=0;" vertex="1" parent="Q43GNFNiwiVQ_0NkFgTO-61">
          <mxGeometry y="14.5" width="70" height="20" as="geometry" />
        </mxCell>
        <mxCell id="Q43GNFNiwiVQ_0NkFgTO-77" value="" style="shape=image;verticalLabelPosition=bottom;labelBackgroundColor=default;verticalAlign=top;aspect=fixed;imageAspect=0;image=data:image/svg+xml,PHN2ZyB4bWxucz0iaHR0cDovL3d3dy53My5vcmcvMjAwMC9zdmciIGhlaWdodD0iMTYiIHdpZHRoPSIxNiIgdmlld0JveD0iMCAwIDE2IDE2Ij48cGF0aCBkPSJNOCAyLjVhNS40ODcgNS40ODcgMCAwMC00LjEzMSAxLjg2OWwxLjIwNCAxLjIwNEEuMjUuMjUgMCAwMTQuODk2IDZIMS4yNUEuMjUuMjUgMCAwMTEgNS43NVYyLjEwNGEuMjUuMjUgMCAwMS40MjctLjE3N2wxLjM4IDEuMzhBNy4wMDEgNy4wMDEgMCAwMTE0Ljk1IDcuMTZhLjc1Ljc1IDAgMTEtMS40OS4xNzhBNS41MDEgNS41MDEgMCAwMDggMi41ek0xLjcwNSA4LjAwNWEuNzUuNzUgMCAwMS44MzQuNjU2IDUuNTAxIDUuNTAxIDAgMDA5LjU5MiAyLjk3bC0xLjIwNC0xLjIwNGEuMjUuMjUgMCAwMS4xNzctLjQyN2gzLjY0NmEuMjUuMjUgMCAwMS4yNS4yNXYzLjY0NmEuMjUuMjUgMCAwMS0uNDI3LjE3N2wtMS4zOC0xLjM4QTcuMDAxIDcuMDAxIDAgMDExLjA1IDguODRhLjc1Ljc1IDAgMDEuNjU2LS44MzR6IiBmaWxsLXJ1bGU9ImV2ZW5vZGQiLz48L3N2Zz4=;" vertex="1" parent="Q43GNFNiwiVQ_0NkFgTO-61">
          <mxGeometry x="7" y="16.5" width="16" height="16" as="geometry" />
        </mxCell>
        <mxCell id="Q43GNFNiwiVQ_0NkFgTO-65" value="" style="group" vertex="1" connectable="0" parent="1">
          <mxGeometry x="383" y="920" width="70" height="49" as="geometry" />
        </mxCell>
        <mxCell id="Q43GNFNiwiVQ_0NkFgTO-66" value="" style="ellipse;whiteSpace=wrap;html=1;fillColor=#f8cecc;strokeColor=#b85450;" vertex="1" parent="Q43GNFNiwiVQ_0NkFgTO-65">
          <mxGeometry width="70" height="49" as="geometry" />
        </mxCell>
        <mxCell id="Q43GNFNiwiVQ_0NkFgTO-67" value="　switch" style="text;html=1;strokeColor=none;fillColor=none;align=center;verticalAlign=middle;whiteSpace=wrap;rounded=0;" vertex="1" parent="Q43GNFNiwiVQ_0NkFgTO-65">
          <mxGeometry y="14.5" width="70" height="20" as="geometry" />
        </mxCell>
        <mxCell id="Q43GNFNiwiVQ_0NkFgTO-69" style="edgeStyle=orthogonalEdgeStyle;rounded=0;orthogonalLoop=1;jettySize=auto;html=1;exitX=1;exitY=0.5;exitDx=0;exitDy=0;entryX=0.794;entryY=0.828;entryDx=0;entryDy=0;entryPerimeter=0;" edge="1" parent="1" source="Q43GNFNiwiVQ_0NkFgTO-46" target="Q43GNFNiwiVQ_0NkFgTO-16">
          <mxGeometry relative="1" as="geometry">
            <mxPoint x="670" y="760" as="targetPoint" />
            <Array as="points">
              <mxPoint x="660" y="635" />
            </Array>
          </mxGeometry>
        </mxCell>
        <mxCell id="Q43GNFNiwiVQ_0NkFgTO-70" value="" style="group" vertex="1" connectable="0" parent="1">
          <mxGeometry x="664" y="831" width="70" height="49" as="geometry" />
        </mxCell>
        <mxCell id="Q43GNFNiwiVQ_0NkFgTO-71" value="" style="ellipse;whiteSpace=wrap;html=1;fillColor=#f8cecc;strokeColor=#b85450;" vertex="1" parent="Q43GNFNiwiVQ_0NkFgTO-70">
          <mxGeometry width="70" height="49" as="geometry" />
        </mxCell>
        <mxCell id="Q43GNFNiwiVQ_0NkFgTO-72" value="　pull" style="text;html=1;strokeColor=none;fillColor=none;align=center;verticalAlign=middle;whiteSpace=wrap;rounded=0;" vertex="1" parent="Q43GNFNiwiVQ_0NkFgTO-70">
          <mxGeometry y="14.5" width="70" height="20" as="geometry" />
        </mxCell>
        <mxCell id="Q43GNFNiwiVQ_0NkFgTO-76" value="" style="shape=image;verticalLabelPosition=bottom;labelBackgroundColor=default;verticalAlign=top;aspect=fixed;imageAspect=0;image=data:image/svg+xml,PHN2ZyB4bWxucz0iaHR0cDovL3d3dy53My5vcmcvMjAwMC9zdmciIGhlaWdodD0iMTYiIHdpZHRoPSIxNiIgdmlld0JveD0iMCAwIDE2IDE2Ij48cGF0aCBkPSJNMTMuMDMgOC4yMmEuNzUuNzUgMCAwMTAgMS4wNmwtNC4yNSA0LjI1YS43NS43NSAwIDAxLTEuMDYgMEwzLjQ3IDkuMjhhLjc1Ljc1IDAgMDExLjA2LTEuMDZsMi45NyAyLjk3VjMuNzVhLjc1Ljc1IDAgMDExLjUgMHY3LjQ0bDIuOTctMi45N2EuNzUuNzUgMCAwMTEuMDYgMHoiIGZpbGwtcnVsZT0iZXZlbm9kZCIvPjwvc3ZnPg==;" vertex="1" parent="Q43GNFNiwiVQ_0NkFgTO-70">
          <mxGeometry x="10" y="18.5" width="16" height="16" as="geometry" />
        </mxCell>
        <mxCell id="Q43GNFNiwiVQ_0NkFgTO-78" value="&lt;font color=&quot;#ff0000&quot;&gt;これが存在しないときはpullできない&lt;/font&gt;" style="text;html=1;strokeColor=none;fillColor=none;align=left;verticalAlign=middle;whiteSpace=wrap;rounded=0;imageAlign=left;" vertex="1" parent="1">
          <mxGeometry x="520" y="1050" width="220" height="30" as="geometry" />
        </mxCell>
        <mxCell id="Q43GNFNiwiVQ_0NkFgTO-79" style="edgeStyle=orthogonalEdgeStyle;rounded=0;orthogonalLoop=1;jettySize=auto;html=1;exitX=0.75;exitY=1;exitDx=0;exitDy=0;entryX=0.75;entryY=0;entryDx=0;entryDy=0;fontColor=#FF0000;" edge="1" parent="1" source="Q43GNFNiwiVQ_0NkFgTO-8" target="Q43GNFNiwiVQ_0NkFgTO-20">
          <mxGeometry relative="1" as="geometry" />
        </mxCell>
        <mxCell id="Q43GNFNiwiVQ_0NkFgTO-80" value="" style="group" vertex="1" connectable="0" parent="1">
          <mxGeometry x="218" y="710" width="70" height="49" as="geometry" />
        </mxCell>
        <mxCell id="Q43GNFNiwiVQ_0NkFgTO-81" value="" style="ellipse;whiteSpace=wrap;html=1;fillColor=#f8cecc;strokeColor=#b85450;" vertex="1" parent="Q43GNFNiwiVQ_0NkFgTO-80">
          <mxGeometry width="70" height="49" as="geometry" />
        </mxCell>
        <mxCell id="Q43GNFNiwiVQ_0NkFgTO-82" value="　fetch" style="text;html=1;strokeColor=none;fillColor=none;align=center;verticalAlign=middle;whiteSpace=wrap;rounded=0;" vertex="1" parent="Q43GNFNiwiVQ_0NkFgTO-80">
          <mxGeometry y="14.5" width="70" height="20" as="geometry" />
        </mxCell>
        <mxCell id="Q43GNFNiwiVQ_0NkFgTO-83" value="" style="shape=image;verticalLabelPosition=bottom;labelBackgroundColor=default;verticalAlign=top;aspect=fixed;imageAspect=0;image=data:image/svg+xml,PHN2ZyB4bWxucz0iaHR0cDovL3d3dy53My5vcmcvMjAwMC9zdmciIGhlaWdodD0iMTYiIHdpZHRoPSIxNiIgdmlld0JveD0iMCAwIDE2IDE2Ij48cGF0aCBkPSJNOCAyLjVhNS40ODcgNS40ODcgMCAwMC00LjEzMSAxLjg2OWwxLjIwNCAxLjIwNEEuMjUuMjUgMCAwMTQuODk2IDZIMS4yNUEuMjUuMjUgMCAwMTEgNS43NVYyLjEwNGEuMjUuMjUgMCAwMS40MjctLjE3N2wxLjM4IDEuMzhBNy4wMDEgNy4wMDEgMCAwMTE0Ljk1IDcuMTZhLjc1Ljc1IDAgMTEtMS40OS4xNzhBNS41MDEgNS41MDEgMCAwMDggMi41ek0xLjcwNSA4LjAwNWEuNzUuNzUgMCAwMS44MzQuNjU2IDUuNTAxIDUuNTAxIDAgMDA5LjU5MiAyLjk3bC0xLjIwNC0xLjIwNGEuMjUuMjUgMCAwMS4xNzctLjQyN2gzLjY0NmEuMjUuMjUgMCAwMS4yNS4yNXYzLjY0NmEuMjUuMjUgMCAwMS0uNDI3LjE3N2wtMS4zOC0xLjM4QTcuMDAxIDcuMDAxIDAgMDExLjA1IDguODRhLjc1Ljc1IDAgMDEuNjU2LS44MzR6IiBmaWxsLXJ1bGU9ImV2ZW5vZGQiLz48L3N2Zz4=;" vertex="1" parent="Q43GNFNiwiVQ_0NkFgTO-80">
          <mxGeometry x="7" y="16.5" width="16" height="16" as="geometry" />
        </mxCell>
        <mxCell id="Q43GNFNiwiVQ_0NkFgTO-86" style="edgeStyle=orthogonalEdgeStyle;rounded=0;orthogonalLoop=1;jettySize=auto;html=1;exitX=0.5;exitY=1;exitDx=0;exitDy=0;entryX=0.5;entryY=0;entryDx=0;entryDy=0;fontColor=#FF0000;" edge="1" parent="1" source="Q43GNFNiwiVQ_0NkFgTO-45" target="Q43GNFNiwiVQ_0NkFgTO-48">
          <mxGeometry relative="1" as="geometry" />
        </mxCell>
        <mxCell id="Q43GNFNiwiVQ_0NkFgTO-90" style="edgeStyle=orthogonalEdgeStyle;rounded=0;orthogonalLoop=1;jettySize=auto;html=1;exitX=0.5;exitY=1;exitDx=0;exitDy=0;entryX=0.5;entryY=0;entryDx=0;entryDy=0;fontColor=#FF0000;" edge="1" parent="1" source="Q43GNFNiwiVQ_0NkFgTO-48" target="Q43GNFNiwiVQ_0NkFgTO-51">
          <mxGeometry relative="1" as="geometry" />
        </mxCell>
        <mxCell id="Q43GNFNiwiVQ_0NkFgTO-91" value="" style="group" vertex="1" connectable="0" parent="1">
          <mxGeometry x="564" y="920" width="70" height="49" as="geometry" />
        </mxCell>
        <mxCell id="Q43GNFNiwiVQ_0NkFgTO-92" value="" style="ellipse;whiteSpace=wrap;html=1;fillColor=#f8cecc;strokeColor=#b85450;" vertex="1" parent="Q43GNFNiwiVQ_0NkFgTO-91">
          <mxGeometry width="70" height="49" as="geometry" />
        </mxCell>
        <mxCell id="Q43GNFNiwiVQ_0NkFgTO-93" value="　switch" style="text;html=1;strokeColor=none;fillColor=none;align=center;verticalAlign=middle;whiteSpace=wrap;rounded=0;" vertex="1" parent="Q43GNFNiwiVQ_0NkFgTO-91">
          <mxGeometry y="14.5" width="70" height="20" as="geometry" />
        </mxCell>
        <mxCell id="Q43GNFNiwiVQ_0NkFgTO-94" value="" style="group" vertex="1" connectable="0" parent="1">
          <mxGeometry x="563" y="710" width="70" height="49" as="geometry" />
        </mxCell>
        <mxCell id="Q43GNFNiwiVQ_0NkFgTO-95" value="" style="ellipse;whiteSpace=wrap;html=1;fillColor=#f8cecc;strokeColor=#b85450;" vertex="1" parent="Q43GNFNiwiVQ_0NkFgTO-94">
          <mxGeometry width="70" height="49" as="geometry" />
        </mxCell>
        <mxCell id="Q43GNFNiwiVQ_0NkFgTO-96" value="　fetch" style="text;html=1;strokeColor=none;fillColor=none;align=center;verticalAlign=middle;whiteSpace=wrap;rounded=0;" vertex="1" parent="Q43GNFNiwiVQ_0NkFgTO-94">
          <mxGeometry y="14.5" width="70" height="20" as="geometry" />
        </mxCell>
        <mxCell id="Q43GNFNiwiVQ_0NkFgTO-97" value="" style="shape=image;verticalLabelPosition=bottom;labelBackgroundColor=default;verticalAlign=top;aspect=fixed;imageAspect=0;image=data:image/svg+xml,PHN2ZyB4bWxucz0iaHR0cDovL3d3dy53My5vcmcvMjAwMC9zdmciIGhlaWdodD0iMTYiIHdpZHRoPSIxNiIgdmlld0JveD0iMCAwIDE2IDE2Ij48cGF0aCBkPSJNOCAyLjVhNS40ODcgNS40ODcgMCAwMC00LjEzMSAxLjg2OWwxLjIwNCAxLjIwNEEuMjUuMjUgMCAwMTQuODk2IDZIMS4yNUEuMjUuMjUgMCAwMTEgNS43NVYyLjEwNGEuMjUuMjUgMCAwMS40MjctLjE3N2wxLjM4IDEuMzhBNy4wMDEgNy4wMDEgMCAwMTE0Ljk1IDcuMTZhLjc1Ljc1IDAgMTEtMS40OS4xNzhBNS41MDEgNS41MDEgMCAwMDggMi41ek0xLjcwNSA4LjAwNWEuNzUuNzUgMCAwMS44MzQuNjU2IDUuNTAxIDUuNTAxIDAgMDA5LjU5MiAyLjk3bC0xLjIwNC0xLjIwNGEuMjUuMjUgMCAwMS4xNzctLjQyN2gzLjY0NmEuMjUuMjUgMCAwMS4yNS4yNXYzLjY0NmEuMjUuMjUgMCAwMS0uNDI3LjE3N2wtMS4zOC0xLjM4QTcuMDAxIDcuMDAxIDAgMDExLjA1IDguODRhLjc1Ljc1IDAgMDEuNjU2LS44MzR6IiBmaWxsLXJ1bGU9ImV2ZW5vZGQiLz48L3N2Zz4=;" vertex="1" parent="Q43GNFNiwiVQ_0NkFgTO-94">
          <mxGeometry x="7" y="16.5" width="16" height="16" as="geometry" />
        </mxCell>
        <mxCell id="Q43GNFNiwiVQ_0NkFgTO-98" value="&lt;font color=&quot;#ff0000&quot;&gt;&lt;b&gt;監視&lt;/b&gt;&lt;/font&gt;" style="text;html=1;strokeColor=#FF0000;fillColor=none;align=center;verticalAlign=middle;whiteSpace=wrap;rounded=0;imageAlign=left;strokeWidth=2;" vertex="1" parent="1">
          <mxGeometry x="140" y="719.5" width="40" height="30" as="geometry" />
        </mxCell>
      </root>
    </mxGraphModel>
  </diagram>
</mxfile>
